<svg id="svg" version="1.1" xmlns="http://www.w3.org/2000/svg" xmlns:xlink="http://www.w3.org/1999/xlink" width="400" height="400" viewBox="0, 0, 400,400"><g id="svgg"><path id="path0" d="M0.000 91.800 C 0.000 170.536,0.080 183.600,0.564 183.600 C 0.987 183.600,1.193 182.723,1.387 180.100 C 1.853 173.780,2.390 169.279,2.808 168.180 C 3.034 167.585,3.330 165.726,3.466 164.049 C 3.602 162.372,4.025 160.190,4.405 159.200 C 4.784 158.210,5.227 156.327,5.387 155.015 C 5.548 153.703,6.021 151.761,6.439 150.700 C 6.858 149.639,7.201 148.282,7.202 147.685 C 7.204 147.088,7.459 146.113,7.770 145.517 C 8.081 144.921,8.556 143.391,8.825 142.117 C 9.095 140.843,9.533 139.440,9.798 139.000 C 10.063 138.560,10.411 137.488,10.573 136.619 C 10.735 135.749,11.212 134.361,11.633 133.535 C 12.055 132.708,12.402 131.710,12.404 131.316 C 12.406 130.922,12.850 129.700,13.391 128.600 C 13.932 127.500,14.381 126.217,14.387 125.749 C 14.394 125.281,14.652 124.689,14.961 124.433 C 15.269 124.177,15.642 123.485,15.790 122.897 C 16.106 121.640,19.079 114.899,20.067 113.200 C 20.259 112.870,20.687 111.970,21.018 111.200 C 21.349 110.430,21.787 109.530,21.993 109.200 C 22.198 108.870,23.039 107.287,23.862 105.683 C 24.685 104.079,25.593 102.572,25.879 102.334 C 26.166 102.096,26.400 101.696,26.400 101.444 C 26.400 101.192,26.850 100.323,27.400 99.514 C 27.950 98.705,28.400 97.836,28.400 97.584 C 28.400 97.333,28.769 96.648,29.220 96.063 C 30.483 94.426,33.600 89.573,33.600 89.244 C 33.600 89.083,33.916 88.602,34.303 88.175 C 34.690 87.749,35.318 86.950,35.699 86.400 C 39.000 81.632,40.108 80.095,42.200 77.382 C 48.790 68.835,61.274 55.717,69.228 48.983 C 71.296 47.232,73.260 45.567,73.594 45.283 C 76.111 43.134,81.738 38.800,82.009 38.800 C 82.192 38.800,82.581 38.569,82.871 38.287 C 83.441 37.734,85.762 36.052,86.854 35.400 C 87.222 35.180,89.046 33.965,90.907 32.700 C 92.767 31.435,94.466 30.400,94.683 30.400 C 94.899 30.400,95.398 30.045,95.791 29.610 C 96.184 29.176,96.887 28.705,97.353 28.563 C 97.819 28.421,98.470 28.071,98.800 27.785 C 99.363 27.297,102.695 25.434,106.800 23.312 C 107.790 22.800,108.870 22.220,109.200 22.022 C 110.957 20.970,118.325 17.600,118.868 17.600 C 119.217 17.600,119.702 17.359,119.946 17.065 C 120.191 16.770,121.156 16.300,122.092 16.020 C 123.028 15.739,124.150 15.260,124.586 14.955 C 125.021 14.650,125.653 14.398,125.989 14.396 C 126.325 14.394,127.500 13.950,128.600 13.409 C 129.700 12.868,130.939 12.419,131.353 12.413 C 131.767 12.406,132.667 12.063,133.353 11.651 C 134.039 11.239,135.378 10.785,136.328 10.642 C 137.279 10.499,138.463 10.115,138.959 9.790 C 139.456 9.465,140.928 9.002,142.231 8.762 C 143.534 8.522,144.792 8.168,145.027 7.974 C 145.262 7.781,146.432 7.425,147.627 7.184 C 148.822 6.943,150.430 6.509,151.200 6.220 C 151.970 5.931,153.590 5.562,154.800 5.400 C 156.010 5.237,158.080 4.784,159.400 4.393 C 160.720 4.001,163.193 3.566,164.896 3.424 C 166.599 3.283,168.682 2.924,169.525 2.626 C 170.368 2.329,173.925 1.878,177.429 1.624 C 184.238 1.131,185.600 0.920,185.600 0.357 C 185.600 0.149,146.878 0.000,92.800 0.000 L 0.000 0.000 0.000 91.800 M214.800 0.373 C 214.800 0.970,215.843 1.144,222.200 1.607 C 225.500 1.848,228.920 2.234,229.800 2.466 C 230.680 2.697,232.840 3.061,234.600 3.273 C 236.360 3.485,239.060 4.000,240.600 4.417 C 242.140 4.834,244.390 5.295,245.600 5.442 C 246.810 5.589,248.250 5.933,248.800 6.207 C 249.350 6.481,250.610 6.839,251.600 7.002 C 252.590 7.164,254.262 7.636,255.315 8.049 C 256.368 8.462,257.635 8.800,258.130 8.800 C 258.626 8.800,259.744 9.164,260.615 9.610 C 261.487 10.055,262.920 10.528,263.800 10.661 C 264.680 10.793,265.961 11.239,266.647 11.651 C 267.333 12.063,268.233 12.406,268.647 12.413 C 269.061 12.419,270.300 12.868,271.400 13.409 C 272.500 13.950,273.652 14.394,273.960 14.396 C 274.268 14.398,275.438 14.831,276.560 15.357 C 277.682 15.883,279.500 16.704,280.600 17.182 C 283.958 18.640,287.115 20.123,288.300 20.800 C 288.685 21.020,289.450 21.382,290.000 21.605 C 290.550 21.827,292.620 22.908,294.600 24.007 C 296.580 25.105,298.773 26.270,299.473 26.596 C 300.173 26.921,300.860 27.373,301.000 27.600 C 301.140 27.827,301.827 28.286,302.527 28.620 C 304.777 29.695,311.938 34.348,317.887 38.600 C 319.934 40.063,328.190 46.509,328.850 47.159 C 329.208 47.512,330.468 48.603,331.650 49.584 C 334.464 51.920,347.591 65.075,350.404 68.379 C 351.612 69.797,353.024 71.417,353.543 71.979 C 354.620 73.144,359.862 79.952,360.869 81.491 C 361.237 82.054,361.691 82.624,361.878 82.757 C 362.065 82.891,362.574 83.522,363.009 84.160 C 363.444 84.797,364.070 85.709,364.400 86.186 C 364.730 86.662,365.401 87.670,365.890 88.426 C 366.380 89.182,366.961 90.070,367.182 90.400 C 370.057 94.697,371.338 96.731,371.820 97.762 C 372.360 98.915,373.061 100.167,375.426 104.200 C 375.942 105.080,376.571 106.250,376.825 106.800 C 377.078 107.350,377.435 108.070,377.617 108.400 C 378.683 110.332,382.400 117.958,382.400 118.214 C 382.400 118.382,382.864 119.528,383.431 120.760 C 385.307 124.838,385.536 125.387,386.027 127.000 C 386.295 127.880,386.758 128.955,387.057 129.389 C 387.356 129.823,387.600 130.505,387.600 130.905 C 387.600 131.305,387.945 132.308,388.367 133.135 C 388.788 133.961,389.263 135.349,389.421 136.219 C 389.579 137.088,390.019 138.430,390.398 139.200 C 390.777 139.970,391.205 141.363,391.348 142.294 C 391.491 143.226,391.862 144.576,392.173 145.294 C 392.830 146.811,393.723 150.282,394.794 155.482 C 395.211 157.506,395.719 159.486,395.923 159.882 C 396.127 160.277,396.411 161.950,396.555 163.600 C 396.699 165.250,397.089 167.500,397.423 168.600 C 397.756 169.700,398.123 172.310,398.239 174.400 C 398.507 179.248,399.168 183.600,399.636 183.600 C 399.854 183.600,400.000 146.655,400.000 91.800 L 400.000 0.000 307.400 0.000 C 250.394 0.000,214.800 0.143,214.800 0.373 M129.680 116.080 C 129.327 116.433,129.200 119.861,129.200 129.016 L 129.200 141.472 128.181 141.936 C 127.450 142.269,121.356 142.400,106.614 142.400 C 95.312 142.400,85.781 142.509,85.433 142.643 C 84.860 142.863,84.800 148.528,84.800 202.722 C 84.800 264.668,84.883 268.114,86.422 270.400 C 86.792 270.950,87.227 271.824,87.388 272.343 C 87.779 273.602,88.523 274.529,91.534 277.513 C 94.487 280.441,96.223 281.472,101.200 283.255 L 103.800 284.186 209.200 284.293 C 267.170 284.351,314.823 284.255,315.096 284.078 C 315.835 283.601,315.846 116.403,315.107 115.934 C 314.226 115.375,130.240 115.520,129.680 116.080 M296.604 131.700 C 296.724 132.195,296.773 139.080,296.712 147.000 L 296.600 161.400 222.600 161.503 C 153.382 161.599,148.568 161.561,148.100 160.926 C 147.455 160.049,147.375 132.768,148.014 131.574 C 148.421 130.813,149.676 130.800,222.406 130.800 L 296.385 130.800 296.604 131.700 M191.920 168.080 C 192.219 168.379,192.400 169.858,192.400 172.000 C 192.400 174.142,192.219 175.621,191.920 175.920 C 191.228 176.612,148.772 176.612,148.080 175.920 C 147.307 175.147,147.449 169.230,148.262 168.331 C 149.093 167.413,191.012 167.172,191.920 168.080 M244.311 168.223 C 245.753 169.233,245.652 175.266,244.181 175.936 C 242.830 176.551,201.919 176.599,200.774 175.986 C 199.891 175.513,199.623 169.851,200.414 168.374 C 200.992 167.294,242.780 167.150,244.311 168.223 M293.000 194.600 L 293.000 216.600 274.600 216.600 L 256.200 216.600 256.089 195.400 C 256.028 183.740,256.077 173.793,256.198 173.296 L 256.417 172.392 274.709 172.496 L 293.000 172.600 293.000 194.600 M244.426 183.214 C 245.091 183.570,245.200 184.073,245.200 186.800 C 245.200 189.527,245.091 190.030,244.426 190.386 C 243.249 191.016,201.113 190.953,200.480 190.320 C 199.839 189.679,199.839 183.921,200.480 183.280 C 201.113 182.647,243.249 182.584,244.426 183.214 M188.557 187.433 C 189.118 188.894,188.823 260.683,188.254 261.155 C 187.861 261.481,182.677 261.579,169.754 261.504 L 151.800 261.400 151.697 224.600 C 151.640 204.360,151.679 187.575,151.784 187.300 C 152.107 186.454,188.232 186.584,188.557 187.433 M244.469 198.262 C 245.752 199.424,245.531 205.321,244.181 205.936 C 242.423 206.737,201.439 206.582,200.629 205.771 C 200.164 205.307,200.000 204.324,200.000 202.000 C 200.000 199.676,200.164 198.693,200.629 198.229 C 201.611 197.246,243.381 197.278,244.469 198.262 M244.174 213.190 C 245.333 213.631,245.765 219.275,244.720 220.320 C 244.028 221.012,201.172 221.012,200.480 220.320 C 199.735 219.575,199.851 214.206,200.629 213.429 C 201.374 212.683,242.253 212.460,244.174 213.190 M0.000 308.200 L 0.000 400.000 92.800 400.000 C 151.464 400.000,185.600 399.860,185.600 399.618 C 185.600 399.091,183.955 398.861,177.000 398.418 C 173.700 398.208,170.100 397.771,169.000 397.447 C 167.900 397.123,165.740 396.739,164.200 396.595 C 162.660 396.450,160.230 395.997,158.800 395.587 C 157.370 395.178,155.210 394.667,154.000 394.453 C 151.746 394.053,147.937 393.073,145.800 392.342 C 145.140 392.116,143.430 391.608,142.000 391.214 C 140.570 390.819,138.860 390.302,138.200 390.064 C 137.540 389.827,136.190 389.376,135.200 389.062 C 132.594 388.237,130.817 387.584,129.000 386.786 C 128.120 386.399,126.950 385.958,126.400 385.804 C 125.223 385.477,122.377 384.260,120.400 383.239 C 119.630 382.842,118.460 382.386,117.800 382.227 C 117.140 382.068,116.330 381.704,116.000 381.419 C 115.670 381.134,114.739 380.689,113.932 380.430 C 113.125 380.171,112.262 379.716,112.016 379.419 C 111.769 379.122,111.094 378.760,110.515 378.614 C 109.937 378.469,109.020 378.002,108.478 377.575 C 107.936 377.149,107.167 376.800,106.770 376.800 C 106.372 376.800,105.944 376.633,105.818 376.429 C 105.692 376.226,104.021 375.191,102.104 374.129 C 100.188 373.068,98.135 371.930,97.543 371.600 C 96.951 371.270,95.658 370.432,94.671 369.739 C 93.683 369.045,92.522 368.366,92.090 368.229 C 91.659 368.092,90.984 367.624,90.591 367.190 C 90.198 366.755,89.679 366.400,89.438 366.400 C 89.197 366.399,88.477 365.949,87.838 365.400 C 87.199 364.850,86.443 364.400,86.158 364.400 C 85.873 364.400,85.496 364.171,85.320 363.890 C 85.144 363.610,84.480 363.025,83.844 362.590 C 80.748 360.474,73.496 354.914,71.766 353.330 C 71.087 352.708,69.571 351.390,68.397 350.400 C 65.661 348.093,51.900 334.331,49.800 331.802 C 48.920 330.742,47.713 329.366,47.119 328.743 C 46.197 327.778,43.156 323.908,38.709 318.040 C 38.108 317.248,37.445 316.214,37.234 315.742 C 37.024 315.270,36.705 314.820,36.526 314.742 C 36.347 314.664,35.480 313.521,34.600 312.203 C 33.720 310.884,32.775 309.566,32.500 309.274 C 32.225 308.982,32.000 308.514,32.000 308.233 C 32.000 307.953,31.640 307.398,31.200 307.000 C 30.760 306.602,30.400 306.048,30.400 305.769 C 30.400 305.490,29.950 304.727,29.400 304.073 C 28.850 303.419,28.400 302.606,28.400 302.266 C 28.400 301.926,28.236 301.546,28.036 301.422 C 27.721 301.228,24.364 295.369,22.865 292.400 C 22.588 291.850,22.090 290.860,21.760 290.200 C 21.429 289.540,20.986 288.730,20.776 288.400 C 20.566 288.070,20.194 287.350,19.948 286.800 C 19.703 286.250,19.060 284.810,18.520 283.600 C 14.432 274.452,14.302 274.137,12.902 270.000 C 12.567 269.010,12.053 267.660,11.759 267.000 C 11.466 266.340,11.014 264.900,10.755 263.800 C 10.496 262.700,10.115 261.583,9.908 261.317 C 9.564 260.877,8.820 258.383,7.604 253.600 C 7.353 252.610,6.873 250.990,6.538 250.000 C 6.203 249.010,5.693 246.736,5.404 244.947 C 5.115 243.158,4.655 241.276,4.381 240.765 C 4.108 240.254,3.731 238.330,3.545 236.489 C 3.358 234.648,2.944 232.210,2.625 231.071 C 2.157 229.402,1.200 220.005,1.200 217.077 C 1.200 216.705,0.930 216.400,0.600 216.400 C 0.068 216.400,0.000 226.867,0.000 308.200 M399.063 218.700 C 398.962 218.865,398.756 221.070,398.605 223.600 C 398.455 226.130,398.004 229.640,397.603 231.400 C 397.202 233.160,396.742 235.853,396.581 237.384 C 396.420 238.916,396.063 240.716,395.786 241.384 C 395.510 242.053,395.080 243.926,394.831 245.547 C 394.582 247.167,394.192 248.841,393.965 249.265 C 393.738 249.690,393.390 251.030,393.193 252.243 C 392.995 253.457,392.553 255.013,392.209 255.701 C 391.866 256.390,391.475 257.684,391.342 258.577 C 391.208 259.469,390.784 260.740,390.400 261.400 C 390.016 262.060,389.587 263.364,389.447 264.297 C 389.306 265.231,388.834 266.581,388.397 267.297 C 387.960 268.014,387.601 269.050,387.599 269.600 C 387.597 270.150,387.237 271.140,386.800 271.800 C 386.363 272.460,386.004 273.277,386.003 273.615 C 386.001 273.954,385.644 274.929,385.209 275.783 C 384.774 276.636,384.208 277.979,383.952 278.767 C 383.696 279.555,383.242 280.555,382.943 280.989 C 382.644 281.423,382.400 282.074,382.400 282.435 C 382.400 282.796,382.051 283.536,381.625 284.078 C 381.198 284.620,380.724 285.589,380.571 286.232 C 380.418 286.874,380.072 287.670,379.803 288.000 C 379.534 288.330,378.645 289.950,377.827 291.600 C 376.418 294.445,375.708 295.748,373.413 299.700 C 372.870 300.635,372.160 301.954,371.836 302.632 C 371.512 303.309,370.966 304.096,370.623 304.381 C 370.280 304.665,369.996 305.101,369.991 305.349 C 369.982 305.781,366.864 310.716,365.283 312.800 C 364.866 313.350,363.654 315.060,362.589 316.600 C 360.841 319.128,357.993 322.884,356.697 324.370 C 356.424 324.683,356.020 325.246,355.800 325.622 C 355.384 326.332,352.455 329.693,348.010 334.563 C 344.134 338.808,338.269 344.622,334.029 348.421 C 331.955 350.279,329.435 352.542,328.429 353.450 C 327.423 354.357,325.430 355.985,324.000 357.068 C 320.019 360.081,316.662 362.557,315.956 363.000 C 315.606 363.220,314.544 363.940,313.596 364.600 C 312.648 365.260,311.473 366.070,310.985 366.400 C 310.497 366.730,309.112 367.675,307.908 368.500 C 306.703 369.325,305.533 370.000,305.308 370.000 C 305.082 370.000,304.685 370.257,304.425 370.570 C 304.164 370.884,303.287 371.483,302.476 371.903 C 298.940 373.729,295.352 375.757,294.769 376.258 C 294.421 376.556,293.871 376.800,293.546 376.800 C 293.221 376.800,292.345 377.250,291.600 377.800 C 290.855 378.350,289.947 378.800,289.584 378.800 C 289.221 378.800,288.614 379.142,288.236 379.560 C 287.857 379.979,286.948 380.433,286.214 380.571 C 285.481 380.709,284.670 381.075,284.413 381.385 C 284.155 381.695,283.372 382.073,282.672 382.224 C 281.973 382.376,280.770 382.835,280.000 383.244 C 277.567 384.536,274.145 386.000,273.555 386.000 C 273.243 386.000,272.316 386.360,271.496 386.800 C 270.675 387.240,269.750 387.600,269.441 387.600 C 269.132 387.600,267.917 388.048,266.740 388.596 C 265.563 389.144,264.178 389.594,263.662 389.596 C 263.146 389.598,262.246 389.866,261.662 390.190 C 261.078 390.515,259.520 391.073,258.200 391.430 C 256.880 391.787,254.630 392.395,253.200 392.782 C 251.770 393.169,249.739 393.782,248.686 394.143 C 247.633 394.504,246.065 394.800,245.201 394.800 C 244.337 394.800,242.759 395.143,241.696 395.562 C 240.632 395.982,238.240 396.509,236.381 396.734 C 234.521 396.958,231.650 397.424,230.000 397.769 C 228.350 398.113,224.854 398.531,222.231 398.697 C 218.996 398.903,217.409 399.161,217.297 399.500 C 217.166 399.899,235.599 400.000,308.567 400.000 L 400.000 400.000 400.000 309.200 C 400.000 252.730,399.858 218.400,399.624 218.400 C 399.417 218.400,399.164 218.535,399.063 218.700 M244.426 228.014 C 245.092 228.370,245.200 228.874,245.200 231.614 C 245.200 236.850,247.340 236.400,222.423 236.400 L 201.245 236.400 200.623 235.511 C 199.854 234.414,199.746 228.814,200.480 228.080 C 201.113 227.447,243.249 227.384,244.426 228.014 M296.720 228.080 C 297.303 228.663,297.367 233.908,296.810 235.374 L 296.420 236.400 274.859 236.400 C 249.947 236.400,252.200 236.834,252.200 232.039 C 252.200 227.077,249.572 227.600,274.507 227.600 C 290.877 227.600,296.358 227.718,296.720 228.080 M244.311 243.423 C 245.101 243.976,245.200 244.394,245.200 247.184 L 245.200 250.322 243.940 250.761 C 242.124 251.394,202.413 251.371,201.019 250.736 C 199.727 250.147,199.465 244.854,200.662 243.531 C 201.604 242.491,242.834 242.388,244.311 243.423 M296.720 243.280 C 297.014 243.574,297.200 245.013,297.200 247.000 C 297.200 248.987,297.014 250.426,296.720 250.720 C 295.899 251.541,253.455 251.398,252.629 250.571 C 251.903 249.846,251.750 245.509,252.390 243.826 L 252.780 242.800 274.510 242.800 C 290.878 242.800,296.358 242.918,296.720 243.280 M244.426 258.014 C 245.589 258.636,245.569 264.431,244.400 265.600 C 243.292 266.708,201.728 266.871,200.629 265.771 C 199.671 264.814,199.728 258.598,200.700 258.032 C 201.671 257.467,243.372 257.450,244.426 258.014 M296.720 258.080 C 297.303 258.663,297.367 263.908,296.810 265.374 L 296.420 266.400 274.634 266.400 C 258.223 266.400,252.775 266.283,252.553 265.924 C 252.021 265.063,251.878 259.375,252.366 258.463 L 252.828 257.600 274.534 257.600 C 290.883 257.600,296.358 257.718,296.720 258.080 " stroke="none" fill="#f8f8f8" fill-rule="evenodd"></path><path id="path1" d="M185.600 0.357 C 185.600 0.920,184.238 1.131,177.429 1.624 C 173.925 1.878,170.368 2.329,169.525 2.626 C 168.682 2.924,166.599 3.283,164.896 3.424 C 163.193 3.566,160.720 4.001,159.400 4.393 C 158.080 4.784,156.010 5.237,154.800 5.400 C 153.590 5.562,151.970 5.931,151.200 6.220 C 150.430 6.509,148.822 6.943,147.627 7.184 C 146.432 7.425,145.262 7.781,145.027 7.974 C 144.792 8.168,143.534 8.522,142.231 8.762 C 140.928 9.002,139.456 9.465,138.959 9.790 C 138.463 10.115,137.279 10.499,136.328 10.642 C 135.378 10.785,134.039 11.239,133.353 11.651 C 132.667 12.063,131.767 12.406,131.353 12.413 C 130.939 12.419,129.700 12.868,128.600 13.409 C 127.500 13.950,126.325 14.394,125.989 14.396 C 125.653 14.398,125.021 14.650,124.586 14.955 C 124.150 15.260,123.028 15.739,122.092 16.020 C 121.156 16.300,120.191 16.770,119.946 17.065 C 119.702 17.359,119.217 17.600,118.868 17.600 C 118.325 17.600,110.957 20.970,109.200 22.022 C 108.870 22.220,107.790 22.800,106.800 23.312 C 102.695 25.434,99.363 27.297,98.800 27.785 C 98.470 28.071,97.819 28.421,97.353 28.563 C 96.887 28.705,96.184 29.176,95.791 29.610 C 95.398 30.045,94.899 30.400,94.683 30.400 C 94.466 30.400,92.767 31.435,90.907 32.700 C 89.046 33.965,87.222 35.180,86.854 35.400 C 85.762 36.052,83.441 37.734,82.871 38.287 C 82.581 38.569,82.192 38.800,82.009 38.800 C 81.738 38.800,76.111 43.134,73.594 45.283 C 73.260 45.567,71.296 47.232,69.228 48.983 C 61.274 55.717,48.790 68.835,42.200 77.382 C 40.108 80.095,39.000 81.632,35.699 86.400 C 35.318 86.950,34.690 87.749,34.303 88.175 C 33.916 88.602,33.600 89.083,33.600 89.244 C 33.600 89.573,30.483 94.426,29.220 96.063 C 28.769 96.648,28.400 97.333,28.400 97.584 C 28.400 97.836,27.950 98.705,27.400 99.514 C 26.850 100.323,26.400 101.192,26.400 101.444 C 26.400 101.696,26.166 102.096,25.879 102.334 C 25.593 102.572,24.685 104.079,23.862 105.683 C 23.039 107.287,22.198 108.870,21.993 109.200 C 21.787 109.530,21.349 110.430,21.018 111.200 C 20.687 111.970,20.259 112.870,20.067 113.200 C 19.079 114.899,16.106 121.640,15.790 122.897 C 15.642 123.485,15.269 124.177,14.961 124.433 C 14.652 124.689,14.394 125.281,14.387 125.749 C 14.381 126.217,13.932 127.500,13.391 128.600 C 12.850 129.700,12.406 130.922,12.404 131.316 C 12.402 131.710,12.055 132.708,11.633 133.535 C 11.212 134.361,10.735 135.749,10.573 136.619 C 10.411 137.488,10.063 138.560,9.798 139.000 C 9.533 139.440,9.095 140.843,8.825 142.117 C 8.556 143.391,8.081 144.921,7.770 145.517 C 7.459 146.113,7.204 147.088,7.202 147.685 C 7.201 148.282,6.858 149.639,6.439 150.700 C 6.021 151.761,5.548 153.703,5.387 155.015 C 5.227 156.327,4.784 158.210,4.405 159.200 C 4.025 160.190,3.602 162.372,3.466 164.049 C 3.330 165.726,3.034 167.585,2.808 168.180 C 2.390 169.279,1.853 173.780,1.387 180.100 C 1.193 182.723,0.987 183.600,0.564 183.600 C 0.088 183.600,0.000 186.153,0.000 200.000 C 0.000 214.311,0.076 216.400,0.600 216.400 C 0.930 216.400,1.200 216.705,1.200 217.077 C 1.200 220.005,2.157 229.402,2.625 231.071 C 2.944 232.210,3.358 234.648,3.545 236.489 C 3.731 238.330,4.108 240.254,4.381 240.765 C 4.655 241.276,5.115 243.158,5.404 244.947 C 5.693 246.736,6.203 249.010,6.538 250.000 C 6.873 250.990,7.353 252.610,7.604 253.600 C 8.820 258.383,9.564 260.877,9.908 261.317 C 10.115 261.583,10.496 262.700,10.755 263.800 C 11.014 264.900,11.466 266.340,11.759 267.000 C 12.053 267.660,12.567 269.010,12.902 270.000 C 13.868 272.856,14.479 274.482,15.229 276.200 C 16.703 279.572,18.309 283.156,19.981 286.800 C 20.704 288.379,21.607 290.146,22.024 290.800 C 22.234 291.130,22.623 291.850,22.888 292.400 C 24.056 294.822,27.705 301.218,28.036 301.422 C 28.236 301.546,28.400 301.926,28.400 302.266 C 28.400 302.606,28.850 303.419,29.400 304.073 C 29.950 304.727,30.400 305.490,30.400 305.769 C 30.400 306.048,30.760 306.602,31.200 307.000 C 31.640 307.398,32.000 307.953,32.000 308.233 C 32.000 308.514,32.225 308.982,32.500 309.274 C 32.775 309.566,33.720 310.884,34.600 312.203 C 35.480 313.521,36.347 314.664,36.526 314.742 C 36.705 314.820,37.024 315.270,37.234 315.742 C 37.445 316.214,38.108 317.248,38.709 318.040 C 43.156 323.908,46.197 327.778,47.119 328.743 C 47.713 329.366,48.920 330.742,49.800 331.802 C 51.900 334.331,65.661 348.093,68.397 350.400 C 69.571 351.390,71.087 352.708,71.766 353.330 C 73.496 354.914,80.748 360.474,83.844 362.590 C 84.480 363.025,85.144 363.610,85.320 363.890 C 85.496 364.171,85.873 364.400,86.158 364.400 C 86.443 364.400,87.199 364.850,87.838 365.400 C 88.477 365.949,89.197 366.399,89.438 366.400 C 89.679 366.400,90.198 366.755,90.591 367.190 C 90.984 367.624,91.659 368.092,92.090 368.229 C 92.522 368.366,93.683 369.045,94.671 369.739 C 95.658 370.432,96.951 371.270,97.543 371.600 C 98.135 371.930,100.188 373.068,102.104 374.129 C 104.021 375.191,105.692 376.226,105.818 376.429 C 105.944 376.633,106.372 376.800,106.770 376.800 C 107.167 376.800,107.936 377.149,108.478 377.575 C 109.020 378.002,109.937 378.469,110.515 378.614 C 111.094 378.760,111.769 379.122,112.016 379.419 C 112.262 379.716,113.125 380.171,113.932 380.430 C 114.739 380.689,115.670 381.134,116.000 381.419 C 116.330 381.704,117.140 382.068,117.800 382.227 C 118.460 382.386,119.630 382.842,120.400 383.239 C 122.377 384.260,125.223 385.477,126.400 385.804 C 126.950 385.958,128.120 386.399,129.000 386.786 C 130.817 387.584,132.594 388.237,135.200 389.062 C 136.190 389.376,137.540 389.827,138.200 390.064 C 138.860 390.302,140.570 390.819,142.000 391.214 C 143.430 391.608,145.140 392.116,145.800 392.342 C 147.928 393.069,151.741 394.053,154.000 394.455 C 155.210 394.671,157.190 395.138,158.400 395.493 C 159.610 395.848,162.220 396.358,164.200 396.628 C 166.180 396.897,169.240 397.397,171.000 397.740 C 172.760 398.082,176.708 398.515,179.773 398.701 C 183.492 398.927,185.400 399.199,185.507 399.520 C 185.767 400.302,216.758 400.202,217.356 399.417 C 217.685 398.985,219.152 398.765,223.000 398.570 C 225.860 398.425,229.280 398.040,230.600 397.713 C 231.920 397.386,234.521 396.940,236.381 396.722 C 238.240 396.503,240.632 395.982,241.696 395.562 C 242.759 395.143,244.337 394.800,245.201 394.800 C 246.065 394.800,247.633 394.504,248.686 394.143 C 249.739 393.782,251.770 393.169,253.200 392.782 C 254.630 392.395,256.880 391.787,258.200 391.430 C 259.520 391.073,261.078 390.515,261.662 390.190 C 262.246 389.866,263.146 389.598,263.662 389.596 C 264.178 389.594,265.563 389.144,266.740 388.596 C 267.917 388.048,269.132 387.600,269.441 387.600 C 269.750 387.600,270.675 387.240,271.496 386.800 C 272.316 386.360,273.243 386.000,273.555 386.000 C 274.145 386.000,277.567 384.536,280.000 383.244 C 280.770 382.835,281.973 382.376,282.672 382.224 C 283.372 382.073,284.155 381.695,284.413 381.385 C 284.670 381.075,285.481 380.709,286.214 380.571 C 286.948 380.433,287.857 379.979,288.236 379.560 C 288.614 379.142,289.221 378.800,289.584 378.800 C 289.947 378.800,290.855 378.350,291.600 377.800 C 292.345 377.250,293.221 376.800,293.546 376.800 C 293.871 376.800,294.421 376.556,294.769 376.258 C 295.352 375.757,298.940 373.729,302.476 371.903 C 303.287 371.483,304.164 370.884,304.425 370.570 C 304.685 370.257,305.082 370.000,305.308 370.000 C 305.533 370.000,306.703 369.325,307.908 368.500 C 309.112 367.675,310.497 366.730,310.985 366.400 C 311.473 366.070,312.648 365.260,313.596 364.600 C 314.544 363.940,315.606 363.220,315.956 363.000 C 316.662 362.557,320.019 360.081,324.000 357.068 C 325.430 355.985,327.423 354.357,328.429 353.450 C 329.435 352.542,331.955 350.279,334.029 348.421 C 338.269 344.622,344.134 338.808,348.010 334.563 C 352.455 329.693,355.384 326.332,355.800 325.622 C 356.020 325.246,356.424 324.683,356.697 324.370 C 357.993 322.884,360.841 319.128,362.589 316.600 C 363.654 315.060,364.866 313.350,365.283 312.800 C 366.864 310.716,369.982 305.781,369.991 305.349 C 369.996 305.101,370.280 304.665,370.623 304.381 C 370.966 304.096,371.512 303.309,371.836 302.632 C 372.160 301.954,372.870 300.635,373.413 299.700 C 375.708 295.748,376.418 294.445,377.827 291.600 C 378.645 289.950,379.534 288.330,379.803 288.000 C 380.072 287.670,380.418 286.874,380.571 286.232 C 380.724 285.589,381.198 284.620,381.625 284.078 C 382.051 283.536,382.400 282.796,382.400 282.435 C 382.400 282.074,382.644 281.423,382.943 280.989 C 383.242 280.555,383.696 279.555,383.952 278.767 C 384.208 277.979,384.774 276.636,385.209 275.783 C 385.644 274.929,386.001 273.954,386.003 273.615 C 386.004 273.277,386.363 272.460,386.800 271.800 C 387.237 271.140,387.597 270.150,387.599 269.600 C 387.601 269.050,387.960 268.014,388.397 267.297 C 388.834 266.581,389.306 265.231,389.447 264.297 C 389.587 263.364,390.016 262.060,390.400 261.400 C 390.784 260.740,391.208 259.469,391.342 258.577 C 391.475 257.684,391.866 256.390,392.209 255.701 C 392.553 255.013,392.995 253.457,393.193 252.243 C 393.390 251.030,393.738 249.690,393.965 249.265 C 394.192 248.841,394.582 247.167,394.831 245.547 C 395.080 243.926,395.510 242.053,395.786 241.384 C 396.063 240.716,396.420 238.916,396.581 237.384 C 396.742 235.853,397.203 233.160,397.605 231.400 C 398.007 229.640,398.459 226.072,398.609 223.472 C 398.811 219.986,399.029 218.687,399.441 218.529 C 400.102 218.275,400.295 183.600,399.636 183.600 C 399.168 183.600,398.507 179.248,398.239 174.400 C 398.123 172.310,397.756 169.700,397.423 168.600 C 397.089 167.500,396.699 165.250,396.555 163.600 C 396.411 161.950,396.127 160.277,395.923 159.882 C 395.719 159.486,395.211 157.506,394.794 155.482 C 393.723 150.282,392.830 146.811,392.173 145.294 C 391.862 144.576,391.491 143.226,391.348 142.294 C 391.205 141.363,390.777 139.970,390.398 139.200 C 390.019 138.430,389.579 137.088,389.421 136.219 C 389.263 135.349,388.788 133.961,388.367 133.135 C 387.945 132.308,387.600 131.305,387.600 130.905 C 387.600 130.505,387.356 129.823,387.057 129.389 C 386.758 128.955,386.295 127.880,386.027 127.000 C 385.536 125.387,385.307 124.838,383.431 120.760 C 382.864 119.528,382.400 118.382,382.400 118.214 C 382.400 117.958,378.683 110.332,377.617 108.400 C 377.435 108.070,377.078 107.350,376.825 106.800 C 376.571 106.250,375.942 105.080,375.426 104.200 C 373.061 100.167,372.360 98.915,371.820 97.762 C 371.338 96.731,370.057 94.697,367.182 90.400 C 366.961 90.070,366.380 89.182,365.890 88.426 C 365.401 87.670,364.730 86.662,364.400 86.186 C 364.070 85.709,363.444 84.797,363.009 84.160 C 362.574 83.522,362.065 82.891,361.878 82.757 C 361.691 82.624,361.237 82.054,360.869 81.491 C 359.862 79.952,354.620 73.144,353.543 71.979 C 353.024 71.417,351.612 69.797,350.404 68.379 C 347.591 65.075,334.464 51.920,331.650 49.584 C 330.468 48.603,329.208 47.512,328.850 47.159 C 328.190 46.509,319.934 40.063,317.887 38.600 C 311.938 34.348,304.777 29.695,302.527 28.620 C 301.827 28.286,301.140 27.827,301.000 27.600 C 300.860 27.373,300.173 26.921,299.473 26.596 C 298.773 26.270,296.580 25.105,294.600 24.007 C 292.620 22.908,290.550 21.827,290.000 21.605 C 289.450 21.382,288.685 21.020,288.300 20.800 C 287.115 20.123,283.958 18.640,280.600 17.182 C 279.500 16.704,277.682 15.883,276.560 15.357 C 275.438 14.831,274.268 14.398,273.960 14.396 C 273.652 14.394,272.500 13.950,271.400 13.409 C 270.300 12.868,269.061 12.419,268.647 12.413 C 268.233 12.406,267.333 12.063,266.647 11.651 C 265.961 11.239,264.680 10.793,263.800 10.661 C 262.920 10.528,261.487 10.055,260.615 9.610 C 259.744 9.164,258.626 8.800,258.130 8.800 C 257.635 8.800,256.368 8.462,255.315 8.049 C 254.262 7.636,252.590 7.164,251.600 7.002 C 250.610 6.839,249.350 6.480,248.800 6.204 C 248.250 5.928,246.726 5.571,245.414 5.411 C 244.102 5.252,241.942 4.797,240.614 4.401 C 239.286 4.005,236.774 3.563,235.031 3.418 C 233.288 3.273,231.557 2.991,231.185 2.792 C 230.417 2.381,225.284 1.762,219.491 1.381 C 216.965 1.215,215.382 0.925,215.019 0.562 C 214.365 -0.092,185.600 -0.293,185.600 0.357 M315.107 115.934 C 315.846 116.403,315.835 283.601,315.096 284.078 C 314.823 284.255,267.170 284.351,209.200 284.293 L 103.800 284.186 101.200 283.255 C 96.223 281.472,94.487 280.441,91.534 277.513 C 88.523 274.529,87.779 273.602,87.388 272.343 C 87.227 271.824,86.792 270.950,86.422 270.400 C 84.883 268.114,84.800 264.668,84.800 202.722 C 84.800 148.528,84.860 142.863,85.433 142.643 C 85.781 142.509,95.312 142.400,106.614 142.400 C 121.356 142.400,127.450 142.269,128.181 141.936 L 129.200 141.472 129.200 129.016 C 129.200 119.861,129.327 116.433,129.680 116.080 C 130.240 115.520,314.226 115.375,315.107 115.934 M148.262 168.331 C 147.449 169.230,147.307 175.147,148.080 175.920 C 148.772 176.612,191.228 176.612,191.920 175.920 C 192.219 175.621,192.400 174.142,192.400 172.000 C 192.400 169.858,192.219 168.379,191.920 168.080 C 191.012 167.172,149.093 167.413,148.262 168.331 M200.414 168.374 C 199.623 169.851,199.891 175.513,200.774 175.986 C 201.919 176.599,242.830 176.551,244.181 175.936 C 245.652 175.266,245.753 169.233,244.311 168.223 C 242.780 167.150,200.992 167.294,200.414 168.374 M191.916 172.598 L 191.800 175.400 170.100 175.503 L 148.400 175.607 148.400 172.403 C 148.400 170.642,148.445 169.159,148.500 169.109 C 148.555 169.059,158.140 168.924,169.800 168.809 C 194.174 168.569,192.096 168.213,191.916 172.598 M243.570 169.364 C 243.856 169.709,243.992 170.991,243.919 172.664 L 243.800 175.400 222.400 175.400 L 201.000 175.400 200.878 173.017 C 200.810 171.706,200.859 170.221,200.985 169.717 L 201.215 168.800 222.159 168.800 C 239.693 168.800,243.178 168.892,243.570 169.364 M256.198 173.296 C 256.077 173.793,256.028 183.740,256.089 195.400 L 256.200 216.600 274.600 216.600 L 293.000 216.600 293.000 194.600 L 293.000 172.600 274.709 172.496 L 256.417 172.392 256.198 173.296 M200.480 183.280 C 199.839 183.921,199.839 189.679,200.480 190.320 C 201.113 190.953,243.249 191.016,244.426 190.386 C 245.091 190.030,245.200 189.527,245.200 186.800 C 245.200 184.073,245.091 183.570,244.426 183.214 C 243.249 182.584,201.113 182.647,200.480 183.280 M243.899 183.765 C 244.486 184.353,244.156 189.560,243.505 189.967 C 242.467 190.615,201.930 190.570,201.280 189.920 C 200.695 189.335,200.625 183.725,201.200 183.533 C 201.805 183.331,243.692 183.559,243.899 183.765 M200.629 198.229 C 199.736 199.121,199.736 204.879,200.629 205.771 C 201.439 206.582,242.423 206.737,244.181 205.936 C 245.531 205.321,245.752 199.424,244.469 198.262 C 243.381 197.278,201.611 197.246,200.629 198.229 M243.520 199.280 C 244.098 199.858,244.154 203.144,243.610 204.574 L 243.220 205.600 222.257 205.600 L 201.293 205.600 201.052 204.700 C 200.637 203.150,200.778 199.782,201.280 199.280 C 201.972 198.588,242.828 198.588,243.520 199.280 M200.629 213.429 C 199.851 214.206,199.735 219.575,200.480 220.320 C 201.172 221.012,244.028 221.012,244.720 220.320 C 245.765 219.275,245.333 213.631,244.174 213.190 C 242.253 212.460,201.374 212.683,200.629 213.429 M244.000 216.740 C 244.169 219.219,244.094 219.737,243.526 220.040 C 242.784 220.436,202.453 220.549,201.433 220.157 C 200.778 219.906,200.464 214.469,201.070 213.863 C 201.219 213.715,210.894 213.640,222.570 213.697 L 243.800 213.800 244.000 216.740 M200.480 228.080 C 199.746 228.814,199.854 234.414,200.623 235.511 L 201.245 236.400 222.423 236.400 C 247.340 236.400,245.200 236.850,245.200 231.614 C 245.200 228.874,245.092 228.370,244.426 228.014 C 243.249 227.384,201.113 227.447,200.480 228.080 M252.487 228.300 C 251.967 229.567,252.159 235.028,252.749 235.739 C 253.247 236.339,255.291 236.400,274.859 236.400 L 296.420 236.400 296.810 235.374 C 297.367 233.908,297.303 228.663,296.720 228.080 C 295.835 227.195,252.853 227.409,252.487 228.300 M243.586 229.174 C 244.155 230.236,244.108 234.132,243.520 234.720 C 242.828 235.412,201.972 235.412,201.280 234.720 C 200.778 234.218,200.637 230.850,201.052 229.300 L 201.293 228.400 222.233 228.400 C 242.525 228.400,243.185 228.424,243.586 229.174 M296.550 229.650 C 296.863 231.215,296.862 233.127,296.548 234.300 L 296.307 235.200 274.796 235.200 C 250.539 235.200,252.800 235.549,252.800 231.800 C 252.800 228.051,250.540 228.400,274.793 228.400 L 296.300 228.400 296.550 229.650 M200.662 243.531 C 199.465 244.854,199.727 250.147,201.019 250.736 C 202.413 251.371,242.124 251.394,243.940 250.761 L 245.200 250.322 245.200 247.184 C 245.200 242.422,247.169 242.800,222.373 242.800 C 202.489 242.800,201.287 242.840,200.662 243.531 M252.390 243.826 C 251.750 245.509,251.903 249.846,252.629 250.571 C 253.455 251.398,295.899 251.541,296.720 250.720 C 297.014 250.426,297.200 248.987,297.200 247.000 C 297.200 242.395,299.386 242.800,274.510 242.800 L 252.780 242.800 252.390 243.826 M243.505 244.033 C 244.093 244.399,244.169 244.906,244.000 247.333 L 243.800 250.200 222.400 250.200 L 201.000 250.200 200.881 247.464 C 200.808 245.791,200.944 244.509,201.230 244.164 C 201.832 243.438,242.350 243.313,243.505 244.033 M296.615 244.517 C 296.741 245.021,296.790 246.506,296.722 247.817 L 296.600 250.200 274.700 250.303 L 252.800 250.407 252.800 247.270 C 252.800 245.545,252.920 244.013,253.067 243.867 C 253.213 243.720,263.020 243.600,274.859 243.600 L 296.385 243.600 296.615 244.517 M200.700 258.032 C 199.728 258.598,199.671 264.814,200.629 265.771 C 201.728 266.871,243.292 266.708,244.400 265.600 C 245.569 264.431,245.589 258.636,244.426 258.014 C 243.372 257.450,201.671 257.467,200.700 258.032 M252.366 258.463 C 251.878 259.375,252.021 265.063,252.553 265.924 C 252.775 266.283,258.223 266.400,274.634 266.400 L 296.420 266.400 296.810 265.374 C 297.367 263.908,297.303 258.663,296.720 258.080 C 296.358 257.718,290.883 257.600,274.534 257.600 L 252.828 257.600 252.366 258.463 M243.919 261.336 C 243.992 263.009,243.856 264.291,243.570 264.636 C 242.932 265.404,202.046 265.486,201.280 264.720 C 200.773 264.213,200.597 259.136,201.070 258.663 C 201.219 258.515,210.894 258.440,222.570 258.497 L 243.800 258.600 243.919 261.336 M296.548 259.300 C 296.896 260.600,296.843 264.113,296.466 264.707 C 295.979 265.474,253.298 265.632,253.004 264.867 C 252.892 264.574,252.800 262.999,252.800 261.367 L 252.800 258.400 274.553 258.400 L 296.307 258.400 296.548 259.300 " stroke="none" fill="#a6a948" fill-rule="evenodd"></path><path id="path2" d="M169.800 168.809 C 158.140 168.924,148.555 169.059,148.500 169.109 C 148.445 169.159,148.400 170.642,148.400 172.403 L 148.400 175.607 170.100 175.503 L 191.800 175.400 191.916 172.598 C 192.096 168.213,194.174 168.569,169.800 168.809 M200.985 169.717 C 200.859 170.221,200.810 171.706,200.878 173.017 L 201.000 175.400 222.400 175.400 L 243.800 175.400 243.919 172.664 C 244.103 168.448,246.086 168.800,222.159 168.800 L 201.215 168.800 200.985 169.717 M201.200 183.533 C 200.625 183.725,200.695 189.335,201.280 189.920 C 201.930 190.570,242.467 190.615,243.505 189.967 C 244.156 189.560,244.486 184.353,243.899 183.765 C 243.692 183.559,201.805 183.331,201.200 183.533 M201.280 199.280 C 200.778 199.782,200.637 203.150,201.052 204.700 L 201.293 205.600 222.257 205.600 L 243.220 205.600 243.610 204.574 C 244.154 203.144,244.098 199.858,243.520 199.280 C 242.828 198.588,201.972 198.588,201.280 199.280 M201.070 213.863 C 200.464 214.469,200.778 219.906,201.433 220.157 C 202.453 220.549,242.784 220.436,243.526 220.040 C 244.094 219.737,244.169 219.219,244.000 216.740 L 243.800 213.800 222.570 213.697 C 210.894 213.640,201.219 213.715,201.070 213.863 M201.052 229.300 C 200.637 230.850,200.778 234.218,201.280 234.720 C 201.972 235.412,242.828 235.412,243.520 234.720 C 244.108 234.132,244.155 230.236,243.586 229.174 C 243.185 228.424,242.525 228.400,222.233 228.400 L 201.293 228.400 201.052 229.300 M253.043 229.033 C 252.909 229.381,252.800 230.626,252.800 231.800 C 252.800 235.549,250.539 235.200,274.796 235.200 L 296.307 235.200 296.548 234.300 C 296.862 233.127,296.863 231.215,296.550 229.650 L 296.300 228.400 274.793 228.400 C 255.550 228.400,253.260 228.467,253.043 229.033 M201.230 244.164 C 200.944 244.509,200.808 245.791,200.881 247.464 L 201.000 250.200 222.400 250.200 L 243.800 250.200 244.000 247.333 C 244.169 244.906,244.093 244.399,243.505 244.033 C 242.350 243.313,201.832 243.438,201.230 244.164 M253.067 243.867 C 252.920 244.013,252.800 245.545,252.800 247.270 L 252.800 250.407 274.700 250.303 L 296.600 250.200 296.722 247.817 C 296.790 246.506,296.741 245.021,296.615 244.517 L 296.385 243.600 274.859 243.600 C 263.020 243.600,253.213 243.720,253.067 243.867 M201.070 258.663 C 200.597 259.136,200.773 264.213,201.280 264.720 C 202.046 265.486,242.932 265.404,243.570 264.636 C 243.856 264.291,243.992 263.009,243.919 261.336 L 243.800 258.600 222.570 258.497 C 210.894 258.440,201.219 258.515,201.070 258.663 M252.800 261.367 C 252.800 262.999,252.892 264.574,253.004 264.867 C 253.298 265.632,295.979 265.474,296.466 264.707 C 296.843 264.113,296.896 260.600,296.548 259.300 L 296.307 258.400 274.553 258.400 L 252.800 258.400 252.800 261.367 " stroke="none" fill="#3f474f" fill-rule="evenodd"></path><path id="path3" d="M148.014 131.574 C 147.375 132.768,147.455 160.049,148.100 160.926 C 148.568 161.561,153.382 161.599,222.600 161.503 L 296.600 161.400 296.712 147.000 C 296.773 139.080,296.724 132.195,296.604 131.700 L 296.385 130.800 222.406 130.800 C 149.676 130.800,148.421 130.813,148.014 131.574 " stroke="none" fill="#f46b54" fill-rule="evenodd"></path><path id="path4" d="M151.784 187.300 C 151.679 187.575,151.640 204.360,151.697 224.600 L 151.800 261.400 169.754 261.504 C 182.677 261.579,187.861 261.481,188.254 261.155 C 188.823 260.683,189.118 188.894,188.557 187.433 C 188.232 186.584,152.107 186.454,151.784 187.300 " stroke="none" fill="#42b0dd" fill-rule="evenodd"></path></g></svg>